<svg xmlns="http://www.w3.org/2000/svg" xmlns:xlink="http://www.w3.org/1999/xlink" width="57" height="59" viewBox="0 0 57 59">
    <defs>
        <path id="a" d="M5.288 0H.248v26.816h5.04V0z"/>
        <path id="c" d="M0 57.71h57V0H0z"/>
    </defs>
    <g fill="none" fill-rule="evenodd">
        <path fill="#FFF" d="M0 58.192h57V.48H0z"/>
        <g transform="translate(0 .48)">
            <path fill="#FF8D1B" d="M11.476 19.93c7.123-4.733 18.818-6.156 18.818-6.156-1.62-.812-3.332-1.792-5.022-2.646-1.929 0-8.61-.039-12.985 4.453h-.002c-.37 1.253-.664 2.764-.832 4.58l.023-.23z"/>
            <path fill="#F9637E" d="M38.026 15.946c5.46.527 5.714-1.483 5.714-1.483 2.725 2.757.596 7.047-3.34 10.299-3.937 3.248-13.444 7.295-24.1 8.889 0 0-3.16-2.347-4.42-7.372 8.839 0 23.165-7.378 26.146-10.333"/>
            <path fill="#FF8D1B" d="M35.514 15.58c-2.586 2.41-7.352 4.154-7.352 4.154-4.727 2.269-9.804 3.862-16.656 4.547.088.708.215 1.373.374 1.998 8.84 0 23.165-7.378 26.146-10.333a28.638 28.638 0 0 1-2.512-.365"/>
            <path fill="#C789D9" d="M11.453 20.162a19.097 19.097 0 0 0 .053 4.119c6.852-.685 11.93-2.278 16.656-4.547 0 0 4.766-1.745 7.352-4.153-.41-.076-.84-.163-1.29-.26-1.192-.262-2.528-.84-3.93-1.547 0 0-11.695 1.423-18.818 6.157M12.276 15.613c1.511-5.152 4.296-5.988 4.75-6.18 2.252-.96 5.215.165 8.243 1.693l.002.003c-1.927 0-8.61-.04-12.984 4.452"/>
            <path fill="#F9637E" d="M42.178 30.821l-.217.439c-2.785 5.643-8.054 3.987-8.84 3.987-.788 0-2.152-.674-2.152-5.44a52.288 52.288 0 0 0 4.343-1.892c4.435 6.175 6.701 3.07 6.866 2.906"/>
            <path fill="#C789D9" d="M35.265 27.915c4.433 6.175 6.7 3.07 6.865 2.906A71.864 71.864 0 0 0 43.87 27c-1.126 1.14-1.755.379-3.96-1.853-1.18.895-2.759 1.841-4.645 2.77"/>
            <path fill="#F9637E" d="M43.867 26.999c.695-1.666 1.22-3.178 1.511-4.457h-.002c-.177.937-.507 1.393-2.346-.469l.001.002c-.72.936-1.615 1.844-2.634 2.687a19.73 19.73 0 0 1-.488.385l-.002-.002c2.206 2.233 2.835 2.993 3.96 1.854"/>
            <path fill="#C789D9" d="M45.38 22.542c.36-1.572.355-2.786-.136-3.482a5.182 5.182 0 0 0-.422-.533c-.255 1.162-.884 2.374-1.788 3.547v-.001c1.838 1.862 2.166 1.405 2.344.47h.002zM40.595 16.005c2.984-.217 3.145-1.542 3.145-1.542 2.604-7.42.97-11.896.97-11.896s-.995-.354-2.57-.631c1.358 6.102-1.549 14.008-1.549 14.008l.004.06z"/>
            <path fill="#FF8D1B" d="M40.59 15.944s2.906-7.906 1.549-14.008a21.21 21.21 0 0 0-3.004-.324c1.939 7.76.785 14.42.785 14.42l.67-.088z"/>
            <path fill="#F9637E" d="M39.918 16.031s1.154-6.66-.784-14.419c-.86-.03-1.78.007-2.73.113v.003l2.73 14.294c.278.01.538.013.784.01z"/>
            <path fill="#C789D9" d="M32.202 2.788l5.83 13.156v.002c.394.037.762.062 1.104.077L36.404 1.728v-.003a15.6 15.6 0 0 0-4.202 1.063"/>
            <path fill="#F9637E" d="M28.002 5.522l8.404 10.211c.59.095 1.132.164 1.63.213L32.205 2.788A13.59 13.59 0 0 0 28 5.518l.002.004z"/>
            <path fill="#FF8D1B" d="M36.387 15.735a38.871 38.871 0 0 1-2.174-.414c-1.012-.224-2.13-.675-3.303-1.24h.001c-2.816-1.728-5.359-5.565-5.359-5.565a15.39 15.39 0 0 1 2.428-2.998l.002.004 8.405 10.211v.002z"/>
            <g transform="translate(18.525)">
                <mask id="b" fill="#fff">
                    <use xlink:href="#a"/>
                </mask>
                <path fill="#F9637E" d="M2.285 24.654c.066.01.174 0 .344-.07l.01-.004-.002-.01c-.002-.027-.372-2.587-.656-5.537-.161-1.685.139-4.999.331-6.824.247-2.353.522-4.207.633-4.634-.546 3.87-.825 7.655-.832 11.258l.028.006c.08-.21 2.012-5.13 2.001-5.273l-.003-.017-.017.006c-.355.114-1.131-.214-1.471-.392.702.306 1.224.267 1.556-.117l.004-.005v-.002c.119-.711.27-1.347.42-1.967.201-.849.394-1.65.5-2.612l.006-.047-.032.037c-.113.137-.553.353-1.272.407.46-.14 1.122-.618 1.288-.916.044-.08.053-.143.027-.191-.044-.482-.04-1.207-.035-1.903.003-.64.006-1.24-.026-1.663a.069.069 0 0 0-.023-.048c-.075-.075-.313-.134-.67-.093-.023.003-.042.006-.055.006l.152-.058c.289-.107.509-.2.49-.279-.068-.295-.061-2.911.3-3.68l.007-.009L5.265 0l-.01.016c-.206.269-.485.548-.78.843-.615.616-1.247 1.25-1.18 1.764a.254.254 0 0 1-.14.263c-.038.02-.069.02-.077.01-.007-.004-.007-.018-.004-.027.046-.173.037-.183.028-.192l-.008-.007-.008.003c-.02.001-.042.038-.11.167l-.066.12a6.634 6.634 0 0 0-.343.682c-.139.305-.595 1.393-.767 1.822-.057.146.027.379.252.693.185.255.422.511.565.662.044.047.083.088.105.115-.71-.213-1.224-.362-1.338-.208C1.03 7.2.452 9.047.38 9.581c-.071.55.13 1.175.502 1.55.163.164.349.278.556.338a.763.763 0 0 1 .182.065c-.109.025-1.038-.095-1.3-.295-.017-.013-.031-.007-.036-.002-.042.024-.16.098.499 3.99.327 1.917.686 3.84.69 3.86l.879 7.729h.03c.09-1.425-.017-1.963-.097-2.162" mask="url(#b)"/>
            </g>
            <path fill="#FFC52C" d="M22.156 20.935v-6.514c0-.967.454-1.751 1.123-1.751.621 0 1.168.332 1.472.83l.015-.007c0-1.4-1.123-2.534-2.504-2.534-1.385 0-2.506 1.133-2.506 2.534v7.442h2.4z"/>
            <path fill="#FFC52C" d="M24.766 20.94c0-2.176-1.742-3.94-3.893-3.94-2.15 0-3.894 1.764-3.894 3.94 0 2.18 1.743 3.944 3.894 3.944 2.15 0 3.893-1.765 3.893-3.943"/>
            <path fill="#FF8D1B" d="M22.642 20.94a1.78 1.78 0 0 0-1.77-1.79c-.977 0-1.769.803-1.769 1.79 0 .99.792 1.793 1.77 1.793.977 0 1.77-.802 1.77-1.792"/>
            <path fill="#FFC52C" d="M40.817 29.84c0-1.278-1.025-2.316-2.29-2.316H18.47c-1.264 0-2.29 1.038-2.29 2.316 0 1.282 1.026 2.318 2.29 2.318h20.058c1.265 0 2.29-1.036 2.29-2.318"/>
            <path fill="#FF8D1B" d="M18.47 28.148c-.923 0-1.673.759-1.673 1.692 0 .934.75 1.694 1.672 1.694h20.058c.922 0 1.673-.76 1.673-1.694 0-.933-.75-1.692-1.673-1.692H18.47zm20.057 4.635H18.47c-1.602 0-2.906-1.32-2.906-2.943 0-1.622 1.304-2.941 2.906-2.941h20.058c1.603 0 2.907 1.32 2.907 2.941 0 1.623-1.304 2.943-2.907 2.943z"/>
            <mask id="d" fill="#fff">
                <use xlink:href="#c"/>
            </mask>
            <path fill="#FF8D1B" d="M17.715 55.278h1.51v-23.12h-1.51zM37.772 55.278h1.51v-23.12h-1.51z" mask="url(#d)"/>
            <path fill="#FFC52C" d="M18.468 32.92c-.2 0-.39-.076-.532-.22a.769.769 0 0 1 0-1.083c.275-.283.788-.283 1.069 0a.791.791 0 0 1 .218.54c0 .206-.076.398-.218.543a.762.762 0 0 1-.537.22M17.713 35.046c0-.418.337-.764.755-.764s.755.346.755.764a.759.759 0 0 1-.755.765.759.759 0 0 1-.755-.765m0 2.89c0-.418.337-.764.755-.764s.755.346.755.765a.759.759 0 0 1-.755.764.759.759 0 0 1-.755-.764m0 2.89c0-.423.337-.765.755-.765s.755.342.755.765a.759.759 0 0 1-.755.765.759.759 0 0 1-.755-.765m0 2.89a.76.76 0 0 1 .755-.765.76.76 0 0 1 .755.765.759.759 0 0 1-.755.765.759.759 0 0 1-.755-.765m0 2.89c0-.422.337-.764.755-.764s.755.342.755.765a.759.759 0 0 1-.755.764.759.759 0 0 1-.755-.764m0 2.89c0-.423.337-.765.755-.765s.755.342.755.765a.759.759 0 0 1-.755.765.759.759 0 0 1-.755-.765m0 2.89c0-.423.337-.764.755-.764s.755.341.755.764a.755.755 0 1 1-1.51 0M18.468 56.044c-.2 0-.39-.082-.532-.227a.765.765 0 0 1 0-1.082.772.772 0 0 1 1.069.005.773.773 0 0 1 0 1.077.757.757 0 0 1-.537.227M38.527 32.92a.741.741 0 0 1-.532-.22.767.767 0 0 1-.223-.544c0-.197.08-.394.218-.539a.777.777 0 0 1 1.069 0 .767.767 0 0 1 0 1.082.742.742 0 0 1-.532.222M37.772 35.046c0-.418.337-.764.755-.764s.756.346.756.764a.759.759 0 0 1-.756.765.759.759 0 0 1-.755-.765m0 2.89c0-.418.337-.764.755-.764s.756.346.756.765a.759.759 0 0 1-.756.764.759.759 0 0 1-.755-.764m0 2.89c0-.423.337-.765.755-.765s.756.342.756.765a.759.759 0 0 1-.756.765.759.759 0 0 1-.755-.765m0 2.89a.76.76 0 0 1 .755-.765.76.76 0 0 1 .756.765.759.759 0 0 1-.756.765.759.759 0 0 1-.755-.765m0 2.89c0-.422.337-.764.755-.764s.756.342.756.765a.759.759 0 0 1-.756.764.759.759 0 0 1-.755-.764m0 2.89c0-.423.337-.765.755-.765s.756.342.756.765a.759.759 0 0 1-.756.765.759.759 0 0 1-.755-.765m0 2.89c0-.423.337-.764.755-.764s.756.341.756.764a.755.755 0 1 1-1.511 0M38.527 56.044a.745.745 0 0 1-.532-.227.763.763 0 0 1 0-1.082.77.77 0 0 1 1.064 0 .763.763 0 0 1 0 1.082.745.745 0 0 1-.532.227" mask="url(#d)"/>
            <path fill="#FFC52C" d="M20.063 56.096c0-.892-.713-1.613-1.593-1.613-.882 0-1.595.721-1.595 1.613 0 .891.713 1.615 1.595 1.615.88 0 1.593-.724 1.593-1.615M40.122 56.096c0-.892-.716-1.613-1.595-1.613-.881 0-1.594.721-1.594 1.613 0 .891.713 1.615 1.594 1.615.88 0 1.595-.724 1.595-1.615" mask="url(#d)"/>
        </g>
    </g>
</svg>
