<svg xmlns="http://www.w3.org/2000/svg" xmlns:xlink="http://www.w3.org/1999/xlink" width="60" height="60" viewBox="0 0 60 60">
    <defs>
        <path id="a" d="M0 59.504h59.504V0H0z"/>
    </defs>
    <g fill="none" fill-rule="evenodd">
        <path fill="#FFF" d="M0 60h59.505V.495H0z"/>
        <path fill="#CCC" d="M10.671 41.787h7.093v-4.46h-7.093z"/>
        <g transform="translate(0 .496)">
            <path fill="#F9637E" d="M41.685 15.417a2.082 2.082 0 1 0-4.165 0 2.082 2.082 0 0 0 4.165 0z"/>
            <path fill="#F2F2F2" d="M55.064 29.494h-.003l-3.613-1.436-1.86-4.694c-1.023-2.582-4.396-5.714-7.497-6.958-3.101-1.246-8.933-2.352-12.96-2.458l-21.202-.87A7.115 7.115 0 0 0 .607 20.21v16.336c0 4.029.742 4.747 4.77 4.747h1.417c0-.383.084-.768.252-1.059l1.096-2.345c.336-.581 1.16-1.057 1.831-1.057h4.635c.671 0 1.495.476 1.831 1.057l1.096 2.345c.168.291.252.676.252 1.059h28.145a5.22 5.22 0 1 1 9.877-.193c2.083-.298 2.87-1.046 2.87-2.897v-6.143c-.657-1.213-2.614-2.167-3.615-2.565"/>
            <path fill="#CCC" d="M12.294 25.294a1.837 1.837 0 0 1-1.831 1.831H7.374a1.837 1.837 0 0 1-1.831-1.83v-4.513c0-1.007.824-1.831 1.831-1.831h3.089c1.007 0 1.831.824 1.831 1.831v4.512zM34.834 25.294a1.837 1.837 0 0 1-1.831 1.831h-17.71a1.837 1.837 0 0 1-1.832-1.83v-4.513c0-1.007.824-1.831 1.832-1.831h17.71c1.007 0 1.831.824 1.831 1.831v4.512zM42.89 25.294a1.837 1.837 0 0 1-1.831 1.831h-3.144a1.837 1.837 0 0 1-1.832-1.83v-4.513c0-1.007.824-1.831 1.832-1.831h3.144c1.007 0 1.831.824 1.831 1.831v4.512zM48.851 25.475c.427.913-.047 1.657-1.055 1.656l-1.854-.003a1.84 1.84 0 0 1-1.831-1.834v-4.512c0-1.007.563-1.44 1.25-.96.688.478 1.6 1.616 2.027 2.528l1.463 3.125z"/>
            <path fill="#FFF" d="M36.702 34.209a5.279 5.279 0 1 0-10.557 0 5.279 5.279 0 0 0 10.557 0"/>
            <mask id="b" fill="#fff">
                <use xlink:href="#a"/>
            </mask>
            <path fill="#F9637E" d="M30.508 37.199h1.832v-5.98h-1.832z" mask="url(#b)"/>
            <path fill="#F9637E" d="M28.434 35.124h5.98v-1.83h-5.98z" mask="url(#b)"/>
            <path fill="#4D4D4D" d="M56.865 35.183c.205.266.647.484.983.484h.22c.337 0 .611-.275.611-.611v-2.387a.612.612 0 0 0-.61-.61H55.07c-.336 0-.443.218-.238.483l2.032 2.64z" mask="url(#b)"/>
            <path fill="#FF8D1B" d="M57.387 34.486c.205.266.375.21.378-.127l.008-1.08a.606.606 0 0 0-.605-.61H56.6c-.337 0-.443.217-.238.484l1.025 1.333z" mask="url(#b)"/>
            <path fill="#CCC" d="M8.142 37.888c.21-.363.61-.685 1.045-.876.261-.114.26-.181.008-.181H0v.012a19.452 19.452 0 0 0 .018.692 13.102 13.102 0 0 0 .041.613c.015.164.033.321.055.47.003.024.008.047.012.07.023.143.048.28.078.41l.017.065c.031.125.066.244.105.356.007.02.015.037.023.056.04.11.084.214.134.31l.027.048c.053.095.108.186.17.269l.032.037c.064.082.132.16.207.23.01.01.024.019.035.03.077.067.16.133.25.191l.039.023c.092.057.189.111.295.158l.042.017c.108.047.221.09.343.127.017.004.036.008.051.013.124.035.253.068.392.096l.07.01c.138.027.279.05.43.069l.117.01c.143.016.29.03.447.041.075.005.158.007.235.011.13.006.257.014.397.018.223.005.457.008.705.008h2.027c0-.382.084-.767.252-1.058l1.096-2.345zM58.68 36.83H50.905l2.567 1.522a5.238 5.238 0 0 1 2.336 2.746h.215c2.082-.297 3.48-1.045 3.48-2.896V36.83h-.825z" mask="url(#b)"/>
            <path fill="#CCC" d="M6.48 41.291h5.81v-4.46H6.48z" mask="url(#b)"/>
            <path fill="#4D4D4D" d="M17.514 42.885a5.222 5.222 0 1 0-10.446 0 5.222 5.222 0 1 0 10.446 0" mask="url(#b)"/>
            <path fill="#999" d="M14.858 42.885a2.567 2.567 0 1 0-5.135 0 2.567 2.567 0 0 0 5.135 0" mask="url(#b)"/>
            <path fill="#CCC" d="M56.072 41.09c-.765-2.467-2.448-4.26-5.166-4.26a6.05 6.05 0 0 0-5.836 4.462h8.776l.603-.193 1.623-.01z" mask="url(#b)"/>
            <path fill="#4D4D4D" d="M56.13 42.885a5.223 5.223 0 0 0-5.224-5.223 5.222 5.222 0 0 0-5.223 5.223 5.222 5.222 0 0 0 5.223 5.223 5.223 5.223 0 0 0 5.223-5.223" mask="url(#b)"/>
            <path fill="#999" d="M53.473 42.885a2.567 2.567 0 1 0-5.134 0 2.567 2.567 0 0 0 5.134 0" mask="url(#b)"/>
            <path fill="#CCC" d="M17.588 41.291h27.67v-.61h-27.67z" mask="url(#b)"/>
            <path fill="#F9637E" d="M39.605 12.432c.084 0 .167.006.25.013v-1.05h-.5v1.05c.083-.007.166-.013.25-.013M41.88 13.49l.742-.741-.35-.35-.742.741c.127.107.243.224.35.35M42.575 15.17c.007.082.013.165.013.249 0 .084-.006.167-.013.25h1.05v-.5h-1.05zM37.675 13.14l-.74-.741-.351.35.742.742a2.95 2.95 0 0 1 .35-.35" mask="url(#b)"/>
        </g>
    </g>
</svg>
