<svg xmlns="http://www.w3.org/2000/svg" xmlns:xlink="http://www.w3.org/1999/xlink" width="40" height="40" viewBox="0 0 40 40">
    <defs>
        <path id="a" d="M39.998 0H0v40h39.998V0z"/>
    </defs>
    <g fill="none" fill-rule="evenodd">
        <g>
            <mask id="b" fill="#fff">
                <use xlink:href="#a"/>
            </mask>
            <path fill="#F2F2F2" d="M38.548 19.998c5.22-5.219-5.595-12.954-2.315-16.234-3.28 3.28-11.014-7.535-16.234-2.315-5.22-5.221-12.955 5.595-16.234 2.315C7.044 7.044-3.771 14.78 1.449 20c-5.219 5.219 5.598 12.956 2.318 16.235C7.047 32.955 14.782 43.77 20 38.551c5.219 5.22 12.955-5.595 16.232-2.317-3.277-3.278 7.536-11.016 2.315-16.236" mask="url(#b)"/>
        </g>
        <path fill="#C789D9" d="M22.31 20a2.311 2.311 0 1 0-4.622.001A2.311 2.311 0 0 0 22.31 20M32.298 20a2.31 2.31 0 1 0-4.62 0 2.31 2.31 0 0 0 4.62 0M12.32 20a2.31 2.31 0 1 0-4.62 0 2.31 2.31 0 0 0 4.62 0"/>
    </g>
</svg>
