<svg xmlns="http://www.w3.org/2000/svg" xmlns:xlink="http://www.w3.org/1999/xlink" width="50" height="52" viewBox="0 0 50 52">
    <defs>
        <path id="a" d="M.078 30.536h44.01V.356H.079z"/>
    </defs>
    <g fill="none" fill-rule="evenodd">
        <path fill="#FFF" d="M0 51.317h50V.424H0z"/>
        <path fill="#F5BC2F" d="M14.473 21.137v-9.145c0-.54.43-.977.962-.977h14.22a.97.97 0 0 1 .962.977v9.145H14.473z"/>
        <g transform="translate(2.917 20.781)">
            <mask id="b" fill="#fff">
                <use xlink:href="#a"/>
            </mask>
            <path fill="#C789D9" d="M36.59.42a.933.933 0 0 0-.335-.065c-.124 0-.245.014-.368.018-.111-.004-.218-.016-.33-.016H9.275C4.205.357.078 4.553.078 9.71v19.847c0 .54.432.98.963.98h6.233a.97.97 0 0 0 .963-.98V22.65h16.005v6.907c0 .54.431.98.961.98h6.236a.97.97 0 0 0 .962-.98V15.658c0-1.164.934-2.113 2.082-2.113.737 0 1.418.402 1.794 1.053l2.999 8.411.023.219a.856.856 0 0 1-.848.818.84.84 0 0 1-.667-.33.93.93 0 0 0-.85-.37l-.202.019a.966.966 0 0 0-.714.441c-.157.25-.197.561-.104.843.62 1.885 2.35 3.15 4.303 3.15 2.502 0 3.872-2.07 3.872-4.615V9.71c0-4.802-2.912-8.767-7.5-9.29" mask="url(#b)"/>
        </g>
        <path fill="#F9637E" d="M29.648 11.33h-14.23a.97.97 0 0 1-.96-.98c0-4.748 3.311-8.913 7.874-9.904a.928.928 0 0 1 .401 0c4.565.99 7.877 5.156 7.877 9.904 0 .54-.43.98-.962.98"/>
        <path fill="#666" d="M42.956 29.95a1.348 1.348 0 0 1-1.335-1.356c0-.749.6-1.358 1.335-1.358s1.334.61 1.334 1.358c0 .748-.6 1.357-1.334 1.357"/>
        <path fill="#F9637E" d="M19.667 14.318A2.733 2.733 0 0 0 17.532 17v4.137h4.266V17c0-1.319-.916-2.418-2.131-2.682M25.424 14.318A2.732 2.732 0 0 0 23.29 17v4.137h4.265V17c0-1.319-.916-2.418-2.13-2.682"/>
        <path fill="#C789D9" d="M31.267 12.972H13.8a.963.963 0 0 1-.889-.604.996.996 0 0 1 .209-1.067l1.614-1.643a.955.955 0 0 1 .68-.286h14.24c.254 0 .498.103.68.286l1.613 1.643c.274.28.356.7.207 1.067a.96.96 0 0 1-.887.604"/>
        <path fill="#F9637E" d="M34.559 27.01L21.904 38.433a.945.945 0 0 1-1.277 0L5.903 25.144A.987.987 0 0 1 5.88 23.7a9.07 9.07 0 0 1 6.311-2.563h26.283c.022 0 .073.001.096.003.4 0 .736.251.878.631.142.381.017.81-.282 1.08l-4.607 4.159z"/>
        <path fill="#F5BC2F" d="M39.172 22.117a9.317 9.317 0 0 0-6.665 2.805l6.665 6.781M12.155 26.28a.991.991 0 0 1-.083-1.383.95.95 0 0 1 1.36-.079.984.984 0 0 1 .075 1.376.934.934 0 0 1-1.352.086m2.923 2.643a.994.994 0 0 1-.083-1.385.952.952 0 0 1 1.358-.078c.398.36.436.979.083 1.377a.943.943 0 0 1-1.358.086m2.929 2.641a.992.992 0 0 1-.082-1.383.955.955 0 0 1 1.357-.077.99.99 0 0 1 .084 1.382.958.958 0 0 1-1.36.078M21.578 34.455a.965.965 0 0 1-.967-.978c0-.255.103-.51.28-.692.36-.366 1.006-.366 1.366 0 .173.182.276.437.276.692a.996.996 0 0 1-.276.691.961.961 0 0 1-.679.287M30.007 25.862a.994.994 0 0 1 .084-1.383.952.952 0 0 1 1.36.084.993.993 0 0 1-.086 1.383.953.953 0 0 1-1.358-.084m-3.051 2.754a.992.992 0 0 1 .083-1.383.95.95 0 0 1 1.358.085.99.99 0 0 1-.082 1.382.948.948 0 0 1-1.36-.084m-3.051 2.76a.993.993 0 0 1 .085-1.384.952.952 0 0 1 1.358.078.994.994 0 0 1-.084 1.385.92.92 0 0 1-.635.247.964.964 0 0 1-.724-.327M16.354 25.993a1 1 0 0 1-.077-1.384.952.952 0 0 1 1.36-.078c.397.353.428.971.076 1.383a.951.951 0 0 1-1.359.08m2.384 2.152a.991.991 0 0 1-.075-1.383.942.942 0 0 1 1.351-.085c.397.36.436.979.084 1.383a.96.96 0 0 1-1.36.085M21.758 30.54a.962.962 0 0 1-.68-.287 1.002 1.002 0 0 1 0-1.383c.366-.365 1.001-.365 1.358 0a.982.982 0 0 1 .007 1.383.964.964 0 0 1-.685.288M25.802 25.915a.993.993 0 0 1 .085-1.384.95.95 0 0 1 1.358.078.995.995 0 0 1-.082 1.385.93.93 0 0 1-.636.248.966.966 0 0 1-.725-.327m-2.377 2.146a.997.997 0 0 1 .077-1.382.95.95 0 0 1 1.359.084.992.992 0 0 1-.078 1.383.963.963 0 0 1-.641.248.948.948 0 0 1-.717-.333M21.763 26.026a.97.97 0 0 1-.687-.287 1.004 1.004 0 0 1-.274-.691c0-.262.097-.516.274-.692.354-.366 1.002-.366 1.36 0a.97.97 0 0 1 .284.692c0 .252-.103.507-.277.691a.976.976 0 0 1-.68.287"/>
    </g>
</svg>
