<svg xmlns="http://www.w3.org/2000/svg" width="51" height="51" viewBox="0 0 51 51">
    <g fill="none" fill-rule="evenodd">
        <path fill="#FFF" d="M0 51h51V.421H0z"/>
        <path fill="#CCC" d="M36.797 40.398l-4.844-8.323c-.865-1.486-.71-3.709.354-5.062L43.6 12.639c.532-.677.622-1.97.189-2.714l-2.08-3.572a1.296 1.296 0 0 0-.794-.601 1.301 1.301 0 0 0-.99.127l-16.44 9.412-1.062-1.825 16.439-9.413c1.64-.938 3.741-.38 4.687 1.246l2.08 3.573c.865 1.486.71 3.709-.353 5.062L33.983 28.308c-.532.677-.622 1.97-.19 2.713l4.845 8.323-1.84 1.054z"/>
        <path fill="#F9637E" d="M37.56 4.49c-1.303-2.237-4.216-3.011-6.473-1.72L8.751 15.56c-2.257 1.292-3.037 4.18-1.734 6.419l1.332 2.288c1.303 2.238 4.215 3.012 6.472 1.72l22.337-12.79c2.256-1.292 3.037-4.18 1.734-6.418L37.56 4.49z"/>
        <path fill="#C789D9" d="M45.12 48.137a1.408 1.408 0 0 0 .522-1.926l-8.21-14.1a1.432 1.432 0 0 0-1.94-.516l-3.77 2.158a1.408 1.408 0 0 0-.52 1.926l8.209 14.1c.39.671 1.264.904 1.941.516l3.769-2.158z"/>
    </g>
</svg>
