<svg xmlns="http://www.w3.org/2000/svg" xmlns:xlink="http://www.w3.org/1999/xlink" width="51" height="50" viewBox="0 0 51 50">
    <defs>
        <path id="a" d="M48.91 26.657V.273H.39v26.384z"/>
        <path id="c" d="M48.074 24.59V.345H.118V24.59h47.956z"/>
    </defs>
    <g fill="none" fill-rule="evenodd">
        <path fill="#FFF" d="M0 50h50.164V.413H0z"/>
        <path fill="#F9637E" d="M12.896 1.443L8.94 2.626 7.865 1.564.029 22.878c-.073.401-.018.947.272 1.312a.142.142 0 0 1-.012-.011l-.007.004L25.015 48.63h.001c.201.188.487.25.88.27.58.035 1.016-.093 1.206-.146 1.666-.475 2.746-1.876 2.993-2.494l7.823-19.85-24.696-24.41-.326-.558z"/>
        <path fill="#F2F2F2" d="M37.918 26.412l-7.823 19.85s-.92 2.094-3.47 2.601L2.21 24.726l-.816-1.067s-.321-.668-.078-1.27L8.94 2.627l3.956-1.183 25.022 24.969z"/>
        <path fill="#E6E6E6" d="M11.574 5.061l-.004-.003-6.052 16.764-.01.001c-.235.6-1.223 2.283-3.013 2.415-1.123.084-1.368-1.003-1.244-1.68L8.924 2.63l3.972-1.187-1.001 2.74-.32.878z"/>
        <g transform="translate(1.254 22.314)">
            <mask id="b" fill="#fff">
                <use xlink:href="#a"/>
            </mask>
            <path fill="#E6E6E6" d="M25.48 26.657l23.43-2.139L24.384.273.39 1.675l.563.736z" mask="url(#b)"/>
        </g>
        <g transform="translate(2.09 24.38)">
            <mask id="d" fill="#fff">
                <use xlink:href="#c"/>
            </mask>
            <path fill="#F9637E" d="M24.644 24.59h23.43L23.548.345H.118z" mask="url(#d)"/>
        </g>
    </g>
</svg>
