<?xml version="1.0" encoding="utf-8"?>
<!-- Generator: Adobe Illustrator 22.0.0, SVG Export Plug-In . SVG Version: 6.00 Build 0)  -->
<svg version="1.1" id="Layer_1" xmlns="http://www.w3.org/2000/svg" xmlns:xlink="http://www.w3.org/1999/xlink" x="0px" y="0px"
	 viewBox="0 0 17 22" style="enable-background:new 0 0 17 22;" xml:space="preserve">
<style type="text/css">
	.st0{stroke:#F9E1B4;stroke-width:0.4;}
</style>
<path class="st0" d="M13.6,7.7H13c0,0.1,0,0.3,0,0.6c0,1.6-0.4,3-1.3,4.1c-0.9,1.1-2.1,1.8-3.5,2.1c0.9,2.8,2.2,4.2,4,4.2
	c0.3,0,0.6,0,0.9-0.1v0.2c0,0.5-0.2,1-0.6,1.4c-0.4,0.4-1,0.6-1.8,0.6c-2.6,0-4.5-2.2-5.7-6.7c-1.6-0.6-2.3-1.5-2.3-2.8
	c0-0.5,0.2-0.9,0.5-1.2C3.5,9.9,4,9.7,4.6,9.7c0.6,0,1.2,0.3,1.7,0.8c0.5,0.5,0.9,1.2,1.2,2c1.7-0.6,2.6-1.9,2.6-3.9
	c0-0.2,0-0.5-0.1-0.9H1C0.9,7.5,0.9,7.3,0.9,7c0-1.2,0.9-1.7,2.6-1.7h5.8c-0.4-0.9-1-1.7-1.7-2.4H1C0.9,2.7,0.9,2.5,0.9,2.2
	c0-1.2,0.8-1.7,2.6-1.7H16c0.1,0.2,0.1,0.4,0.1,0.6c0,1.2-0.9,1.8-2.6,1.8h-2.6c0.6,0.7,1.1,1.5,1.5,2.4H16c0.1,0.2,0.1,0.5,0.1,0.6
	C16.1,7.1,15.3,7.7,13.6,7.7L13.6,7.7z"/>
</svg>
